<?xml version="1.0" standalone="yes"?>
<svg xmlns="http://www.w3.org/2000/svg" viewBox="0 140 300 300" width="32" height="32">
<path style="fill:#fdfeff; stroke:none;" d="M0 0L0 620L620 620L620 0L0 0z"/>
<path style="fill:#bce3fc; stroke:none;" d="M286 143L287 144L286 143z"/>
<path style="fill:#829cb0; stroke:none;" d="M287 143L288 144L287 143z"/>
<path style="fill:#bce3fc; stroke:none;" d="M288 143L289 144L288 143z"/>
<path style="fill:#094b84; stroke:none;" d="M286 275C293.931 268.445 298.973 256.464 302.576 247C312.176 221.779 315.28 197.204 304.138 172C301.283 165.542 295.594 146.525 288.029 144.752C284.281 143.873 282.945 148.238 282.239 151.001C280.058 159.534 278.056 167.86 274.573 176C271.094 184.128 259.314 194.718 258.53 203C257.941 209.224 264.08 218.31 266.397 224C273.241 240.814 278.66 258.44 286 275z"/>
<path style="fill:#589cd7; stroke:none;" d="M289 144L290 145L289 144z"/>
<path style="fill:#829cb0; stroke:none;" d="M290 145L291 146L290 145M283 146L284 147L283 146M291 146L292 147L291 146z"/>
<path style="fill:#bce3fc; stroke:none;" d="M292 147L293 148L292 147M282 148L283 149L282 148z"/>
<path style="fill:#829cb0; stroke:none;" d="M282 149L283 150L282 149z"/>
<path style="fill:#bce3fc; stroke:none;" d="M293 149L294 150L293 149z"/>
<path style="fill:#829cb0; stroke:none;" d="M294 151L295 152L294 151z"/>
<path style="fill:#bce3fc; stroke:none;" d="M281 152L282 153L281 152z"/>
<path style="fill:#829cb0; stroke:none;" d="M281.333 153.667L281.667 154.333L281.333 153.667z"/>
<path style="fill:#bce3fc; stroke:none;" d="M295 153L296 154L295 153M296 155L297 156L296 155M280 157L281 158L280 157M297 157L298 158L297 157z"/>
<path style="fill:#829cb0; stroke:none;" d="M280 158L281 159L280 158z"/>
<path style="fill:#589cd7; stroke:none;" d="M297 158L298 159L297 158z"/>
<path style="fill:#bce3fc; stroke:none;" d="M298 159L299 160L298 159M279.333 160.667L279.667 161.333L279.333 160.667z"/>
<path style="fill:#589cd7; stroke:none;" d="M298 160L299 161L298 160z"/>
<path style="fill:#bce3fc; stroke:none;" d="M299 161L300 162L299 161z"/>
<path style="fill:#829cb0; stroke:none;" d="M279 162L280 163L279 162z"/>
<path style="fill:#589cd7; stroke:none;" d="M299 162L300 163L299 162z"/>
<path style="fill:#bce3fc; stroke:none;" d="M300 163L301 164L300 163M278 164L279 165L278 164z"/>
<path style="fill:#829cb0; stroke:none;" d="M300 164L301 165L300 164z"/>
<path style="fill:#589cd7; stroke:none;" d="M278 165L279 166L278 165z"/>
<path style="fill:#829cb0; stroke:none;" d="M301 166L302 167L301 166z"/>
<path style="fill:#bce3fc; stroke:none;" d="M277 167L278 168L277 167z"/>
<path style="fill:#589cd7; stroke:none;" d="M277 168L278 169L277 168z"/>
<path style="fill:#829cb0; stroke:none;" d="M302 168L303 169L302 168z"/>
<path style="fill:#bce3fc; stroke:none;" d="M276 170L277 171L276 170z"/>
<path style="fill:#829cb0; stroke:none;" d="M303 170L304 171L303 170z"/>
<path style="fill:#589cd7; stroke:none;" d="M276 171L277 172L276 171z"/>
<path style="fill:#bce3fc; stroke:none;" d="M275 172L276 173L275 172M304 172L305 173L304 172z"/>
<path style="fill:#589cd7; stroke:none;" d="M275 173L276 174L275 173z"/>
<path style="fill:#bce3fc; stroke:none;" d="M305 174L306 175L305 174M236 175C225.455 202.188 213.141 228.663 202.95 256C197.685 270.123 191.38 285.665 192.039 301C193.795 341.806 249.854 357.965 272.906 324C294.957 291.51 264.018 240.914 250.85 210C246.218 199.125 243.04 184.409 236 175M274 175L275 176L274 175z"/>
<path style="fill:#829cb0; stroke:none;" d="M305 175L306 176L305 175M274 176L275 177L274 176z"/>
<path style="fill:#bce3fc; stroke:none;" d="M273 177L274 178L273 177z"/>
<path style="fill:#829cb0; stroke:none;" d="M306 177L307 178L306 177M273 178L274 179L273 178z"/>
<path style="fill:#bce3fc; stroke:none;" d="M272 179L273 180L272 179M307 179L308 180L307 179z"/>
<path style="fill:#829cb0; stroke:none;" d="M272 180L273 181L272 180M307 180L308 181L307 180z"/>
<path style="fill:#bce3fc; stroke:none;" d="M271 181L272 182L271 181z"/>
<path style="fill:#589cd7; stroke:none;" d="M271 182L272 183L271 182z"/>
<path style="fill:#829cb0; stroke:none;" d="M308.333 182.667L308.667 183.333L308.333 182.667z"/>
<path style="fill:#bce3fc; stroke:none;" d="M270 183L271 184L270 183z"/>
<path style="fill:#589cd7; stroke:none;" d="M270 184L271 185L270 184z"/>
<path style="fill:#bce3fc; stroke:none;" d="M269 185L270 186L269 185M309 185L310 186L309 185z"/>
<path style="fill:#589cd7; stroke:none;" d="M309 186L310 187L309 186z"/>
<path style="fill:#829cb0; stroke:none;" d="M268 187L269 188L268 187z"/>
<path style="fill:#bce3fc; stroke:none;" d="M310 188L311 189L310 188z"/>
<path style="fill:#829cb0; stroke:none;" d="M310.333 189.667L310.667 190.333L310.333 189.667z"/>
<path style="fill:#bce3fc; stroke:none;" d="M266 190L267 191L266 190M265 191L266 192L265 191z"/>
<path style="fill:#589cd7; stroke:none;" d="M265 192L266 193L265 192M264 193L265 194L264 193z"/>
<path style="fill:#bce3fc; stroke:none;" d="M311 193L312 194L311 193M263 194L264 195L263 194z"/>
<path style="fill:#589cd7; stroke:none;" d="M311 194L312 195L311 194z"/>
<path style="fill:#829cb0; stroke:none;" d="M311 195L312 196L311 195z"/>
<path style="fill:#589cd7; stroke:none;" d="M262 196L263 197L262 196M311 196L312 197L311 196z"/>
<path style="fill:#829cb0; stroke:none;" d="M261 197L262 198L261 197z"/>
<path style="fill:#bce3fc; stroke:none;" d="M260 198L261 199L260 198M259 199L260 200L259 199M258 200L259 201L258 200M257 201L258 202L257 201z"/>
<path style="fill:#829cb0; stroke:none;" d="M257 202L258 203L257 202z"/>
<path style="fill:#bce3fc; stroke:none;" d="M257 203L258 204L257 203M258 205L259 206L258 205z"/>
<path style="fill:#829cb0; stroke:none;" d="M259 207L260 208L259 207z"/>
<path style="fill:#bce3fc; stroke:none;" d="M259 208L260 209L259 208z"/>
<path style="fill:#589cd7; stroke:none;" d="M260 209L261 210L260 209z"/>
<path style="fill:#bce3fc; stroke:none;" d="M260 210L261 211L260 210z"/>
<path style="fill:#589cd7; stroke:none;" d="M311.333 210.667L311.667 211.333L311.333 210.667z"/>
<path style="fill:#829cb0; stroke:none;" d="M261 212L262 213L261 212M311 212L312 213L311 212z"/>
<path style="fill:#bce3fc; stroke:none;" d="M311.333 213.667L311.667 214.333L311.333 213.667z"/>
<path style="fill:#589cd7; stroke:none;" d="M262 214L263 215L262 214z"/>
<path style="fill:#bce3fc; stroke:none;" d="M262 215L263 216L262 215M263 217L264 218L263 217z"/>
<path style="fill:#829cb0; stroke:none;" d="M310.333 218.667L310.667 219.333L310.333 218.667M264 219L265 220L264 219z"/>
<path style="fill:#bce3fc; stroke:none;" d="M264 220L265 221L264 220M310.333 220.667L310.667 221.333L310.333 220.667z"/>
<path style="fill:#829cb0; stroke:none;" d="M265 221L266 222L265 221z"/>
<path style="fill:#bce3fc; stroke:none;" d="M265 222L266 223L265 222z"/>
<path style="fill:#589cd7; stroke:none;" d="M309 223L310 224L309 223z"/>
<path style="fill:#829cb0; stroke:none;" d="M266 224L267 225L266 224M309 224L310 225L309 224z"/>
<path style="fill:#bce3fc; stroke:none;" d="M309 225L310 226L309 225z"/>
<path style="fill:#589cd7; stroke:none;" d="M267 226L268 227L267 226z"/>
<path style="fill:#bce3fc; stroke:none;" d="M267 227L268 228L267 227z"/>
<path style="fill:#829cb0; stroke:none;" d="M308 228L309 229L308 228M268 229L269 230L268 229z"/>
<path style="fill:#bce3fc; stroke:none;" d="M308 229L309 230L308 229M199 231L200 232L199 231z"/>
<path style="fill:#829cb0; stroke:none;" d="M200 231L200 232L203 233L200 231z"/>
<path style="fill:#094b84; stroke:none;" d="M202 231L203 232L202 231z"/>
<path style="fill:#829cb0; stroke:none;" d="M269 231L270 232L269 231z"/>
<path style="fill:#bce3fc; stroke:none;" d="M195.667 232.333L196.333 232.667L195.667 232.333z"/>
<path style="fill:#589cd7; stroke:none;" d="M197 232L198 233L197 232z"/>
<path style="fill:#094b84; stroke:none;" d="M112 380L114 380C130.546 353.543 158.444 338.276 186 326L181.515 300L202 232C175.26 234.184 137.274 245.617 118.286 265.17C87.6077 296.761 93.2181 344.304 112 380z"/>
<path style="fill:#bce3fc; stroke:none;" d="M269 232L270 233L269 232z"/>
<path style="fill:#829cb0; stroke:none;" d="M307 232L308 233L307 232z"/>
<path style="fill:#bce3fc; stroke:none;" d="M192 233L193 234L192 233z"/>
<path style="fill:#589cd7; stroke:none;" d="M193 233L194 234L193 233z"/>
<path style="fill:#bce3fc; stroke:none;" d="M202 233L203 234L202 233M307 233L308 234L307 233M188 234L189 235L188 234z"/>
<path style="fill:#589cd7; stroke:none;" d="M189 234L190 235L189 234z"/>
<path style="fill:#bce3fc; stroke:none;" d="M270 234L271 235L270 234z"/>
<path style="fill:#829cb0; stroke:none;" d="M184.667 235.333L185.333 235.667L184.667 235.333M201 235L202 236L201 235M306 235L307 236L306 235z"/>
<path style="fill:#bce3fc; stroke:none;" d="M180 236L181 237L180 236z"/>
<path style="fill:#829cb0; stroke:none;" d="M181 236L182 237L181 236M271 236L272 237L271 236z"/>
<path style="fill:#bce3fc; stroke:none;" d="M306.333 236.667L306.667 237.333L306.333 236.667M176 237L177 238L176 237z"/>
<path style="fill:#829cb0; stroke:none;" d="M177.667 237.333L178.333 237.667L177.667 237.333M200 237L201 238L200 237z"/>
<path style="fill:#bce3fc; stroke:none;" d="M271 237L272 238L271 237M172 238L173 239L172 238z"/>
<path style="fill:#589cd7; stroke:none;" d="M173.667 238.333L174.333 238.667L173.667 238.333z"/>
<path style="fill:#bce3fc; stroke:none;" d="M200 238L201 239L200 238M168 239L169 240L168 239z"/>
<path style="fill:#829cb0; stroke:none;" d="M169 239L170 240L169 239M272 239L273 240L272 239z"/>
<path style="fill:#589cd7; stroke:none;" d="M305 239L306 240L305 239z"/>
<path style="fill:#bce3fc; stroke:none;" d="M165 240L166 241L165 240z"/>
<path style="fill:#589cd7; stroke:none;" d="M166 240L167 241L166 240z"/>
<path style="fill:#829cb0; stroke:none;" d="M199 240L200 241L199 240z"/>
<path style="fill:#bce3fc; stroke:none;" d="M162 241L163 242L162 241z"/>
<path style="fill:#829cb0; stroke:none;" d="M163 241L164 242L163 241M273 241L274 242L273 241z"/>
<path style="fill:#589cd7; stroke:none;" d="M304 241L305 242L304 241z"/>
<path style="fill:#bce3fc; stroke:none;" d="M158 242L159 243L158 242z"/>
<path style="fill:#589cd7; stroke:none;" d="M159.667 242.333L160.333 242.667L159.667 242.333M198 242L199 243L198 242z"/>
<path style="fill:#bce3fc; stroke:none;" d="M273 242L274 243L273 242M304 242L305 243L304 242M155 243L156 244L155 243z"/>
<path style="fill:#589cd7; stroke:none;" d="M156 243L157 244L156 243z"/>
<path style="fill:#bce3fc; stroke:none;" d="M198 243L199 244L198 243z"/>
<path style="fill:#829cb0; stroke:none;" d="M153 244L154 245L153 244M274 244L275 245L274 244M303 244L304 245L303 244M150 245L151 246L150 245z"/>
<path style="fill:#589cd7; stroke:none;" d="M197 245L198 246L197 245z"/>
<path style="fill:#bce3fc; stroke:none;" d="M303 245L304 246L303 245M147 246L148 247L147 246z"/>
<path style="fill:#589cd7; stroke:none;" d="M148 246L149 247L148 246z"/>
<path style="fill:#bce3fc; stroke:none;" d="M197 246L198 247L197 246z"/>
<path style="fill:#589cd7; stroke:none;" d="M275 246L276 247L275 246z"/>
<path style="fill:#bce3fc; stroke:none;" d="M315 246L317 248L315 246M145 247L146 248L145 247M275 247L276 248L275 247z"/>
<path style="fill:#829cb0; stroke:none;" d="M302 247L303 248L302 247M314 247L314 248L316 250L317 250L314 247z"/>
<path style="fill:#589cd7; stroke:none;" d="M143 248L144 249L143 248z"/>
<path style="fill:#bce3fc; stroke:none;" d="M196 248L197 249L196 248z"/>
<path style="fill:#589cd7; stroke:none;" d="M314 248C310.537 257.221 306.119 265.789 300.645 274C297.548 278.647 292.364 283.54 290.684 288.91C289.102 293.967 291.117 301.624 290.985 307C290.779 315.414 287.952 323.86 283.532 331C276.983 341.58 264.294 345.691 258 355C244.156 354.58 233.239 359.855 219 354.95C209.253 351.592 201.062 340.159 191.961 338.039C186.781 336.833 179.541 341.367 175 343.461C159.01 350.833 144.353 360.732 132.715 374C125.381 382.362 115.929 391.369 129.286 399.333C134.774 402.605 141.103 397.109 146 394.848C158.455 389.099 172.381 385.117 186 383.282C210.79 379.943 236.333 384.263 260 373.958C295.526 358.488 305.959 326.523 312.768 291.424C315.372 278.002 318.309 261.585 316 248L314 248z"/>
<path style="fill:#bce3fc; stroke:none;" d="M140 249L141 250L140 249z"/>
<path style="fill:#829cb0; stroke:none;" d="M141 249L142 250L141 249M276 249L277 250L276 249M301 249L302 250L301 249z"/>
<path style="fill:#bce3fc; stroke:none;" d="M313 249L314 250L313 249M138 250L139 251L138 250z"/>
<path style="fill:#589cd7; stroke:none;" d="M139 250L140 251L139 250M195 250L196 251L195 250z"/>
<path style="fill:#bce3fc; stroke:none;" d="M276 250L277 251L276 250M301 250L302 251L301 250M136 251L137 252L136 251z"/>
<path style="fill:#829cb0; stroke:none;" d="M137 251L138 252L137 251z"/>
<path style="fill:#bce3fc; stroke:none;" d="M195 251L196 252L195 251M312 251L313 252L312 251z"/>
<path style="fill:#829cb0; stroke:none;" d="M316.333 251.667L316.667 252.333L316.333 251.667M135 252L136 253L135 252z"/>
<path style="fill:#bce3fc; stroke:none;" d="M277 252L278 253L277 252M300 252L301 253L300 252M133 253L134 254L133 253z"/>
<path style="fill:#829cb0; stroke:none;" d="M194 253L195 254L194 253z"/>
<path style="fill:#bce3fc; stroke:none;" d="M131 254L132 255L131 254M194 254L195 255L194 254z"/>
<path style="fill:#589cd7; stroke:none;" d="M278 254L279 255L278 254z"/>
<path style="fill:#829cb0; stroke:none;" d="M299 254L300 255L299 254z"/>
<path style="fill:#bce3fc; stroke:none;" d="M311 254L312 255L311 254M316 254L317 255L316 254z"/>
<path style="fill:#829cb0; stroke:none;" d="M130 255L131 256L130 255z"/>
<path style="fill:#bce3fc; stroke:none;" d="M278 255L279 256L278 255z"/>
<path style="fill:#829cb0; stroke:none;" d="M311 255L312 256L311 255M316 255L317 256L316 255z"/>
<path style="fill:#bce3fc; stroke:none;" d="M128 256L129 257L128 256z"/>
<path style="fill:#829cb0; stroke:none;" d="M193 256L194 257L193 256z"/>
<path style="fill:#589cd7; stroke:none;" d="M298 256L299 257L298 256z"/>
<path style="fill:#bce3fc; stroke:none;" d="M310 256L311 257L310 256M316 256L317 257L316 256z"/>
<path style="fill:#829cb0; stroke:none;" d="M127 257L128 258L127 257M279 257L280 258L279 257M316 257L317 258L316 257M192 258L193 259L192 258z"/>
<path style="fill:#bce3fc; stroke:none;" d="M279 258L280 259L279 258M297 258L298 259L297 258M309 258L310 259L309 258M316 258L317 259L316 258M124 259L125 260L124 259M192 259L193 260L192 259z"/>
<path style="fill:#829cb0; stroke:none;" d="M309 259L310 260L309 259M316 259L317 260L316 259M123 260L124 261L123 260M280 260L281 261L280 260z"/>
<path style="fill:#bce3fc; stroke:none;" d="M296 260L297 261L296 260M308 260L309 261L308 260M316 260L316 266L317 266L316 260z"/>
<path style="fill:#829cb0; stroke:none;" d="M122 261L123 262L122 261z"/>
<path style="fill:#589cd7; stroke:none;" d="M191 261L192 262L191 261M295 261L296 262L295 261z"/>
<path style="fill:#829cb0; stroke:none;" d="M121 262L122 263L121 262z"/>
<path style="fill:#bce3fc; stroke:none;" d="M191 262L192 263L191 262z"/>
<path style="fill:#589cd7; stroke:none;" d="M281 262L282 263L281 262z"/>
<path style="fill:#bce3fc; stroke:none;" d="M295 262L296 263L295 262M307 262L308 263L307 262M281 263L282 264L281 263z"/>
<path style="fill:#829cb0; stroke:none;" d="M294 263L295 264L294 263M190 264L191 265L190 264z"/>
<path style="fill:#bce3fc; stroke:none;" d="M306 264L307 265L306 264M190 265L191 266L190 265z"/>
<path style="fill:#589cd7; stroke:none;" d="M282 265L283 266L282 265z"/>
<path style="fill:#829cb0; stroke:none;" d="M293 265L294 266L293 265z"/>
<path style="fill:#bce3fc; stroke:none;" d="M282 266L283 267L282 266z"/>
<path style="fill:#829cb0; stroke:none;" d="M305 266L306 267L305 266M116 267L117 268L116 267M189 267L190 268L189 267z"/>
<path style="fill:#bce3fc; stroke:none;" d="M292 267L293 268L292 267M304 267L305 268L304 267z"/>
<path style="fill:#829cb0; stroke:none;" d="M115 268L116 269L115 268z"/>
<path style="fill:#bce3fc; stroke:none;" d="M189 268L190 269L189 268z"/>
<path style="fill:#829cb0; stroke:none;" d="M283 268L284 269L283 268M291 268L292 269L291 268M114 269L115 270L114 269z"/>
<path style="fill:#bce3fc; stroke:none;" d="M283 269L284 270L283 269M303 269L304 270L303 269M113 270L114 271L113 270z"/>
<path style="fill:#829cb0; stroke:none;" d="M188 270L189 271L188 270z"/>
<path style="fill:#bce3fc; stroke:none;" d="M290 270L291 271L290 270M112 271L113 272L112 271M188 271L189 272L188 271z"/>
<path style="fill:#589cd7; stroke:none;" d="M284 271L285 272L284 271M289 271L290 272L289 271z"/>
<path style="fill:#829cb0; stroke:none;" d="M302 271L303 272L302 271z"/>
<path style="fill:#bce3fc; stroke:none;" d="M284 272L285 273L284 272M301 272L302 273L301 272M315 272L315 277L316 277L315 272z"/>
<path style="fill:#829cb0; stroke:none;" d="M111 273L112 274L111 273z"/>
<path style="fill:#589cd7; stroke:none;" d="M187 273L188 274L187 273z"/>
<path style="fill:#bce3fc; stroke:none;" d="M288 273L289 274L288 273M110 274L111 275L110 274M187 274L188 275L187 274z"/>
<path style="fill:#829cb0; stroke:none;" d="M285 274L287 276L285 274M287 274L288 275L287 274z"/>
<path style="fill:#bce3fc; stroke:none;" d="M300 274L301 275L300 274M285 275L286 276L285 275M299 275L300 276L299 275z"/>
<path style="fill:#829cb0; stroke:none;" d="M109 276L110 277L109 276M186.333 276.667L186.667 277.333L186.333 276.667z"/>
<path style="fill:#bce3fc; stroke:none;" d="M286 276L287 277L286 276M108 277L109 278L108 277M298 277L299 278L298 277M297 278L298 279L297 278M107 279L108 280L107 279z"/>
<path style="fill:#589cd7; stroke:none;" d="M185 280L186 281L185 280z"/>
<path style="fill:#829cb0; stroke:none;" d="M314 280L315 281L314 280M106 281L107 282L106 281z"/>
<path style="fill:#bce3fc; stroke:none;" d="M185 281L186 282L185 281M295 281L296 282L295 281M314 281L314 285L315 285L314 281M294 282L295 283L294 282z"/>
<path style="fill:#829cb0; stroke:none;" d="M105 283L106 284L105 283M184.333 283.667L184.667 284.333L184.333 283.667M293 284L294 285L293 284M104 285L105 286L104 285z"/>
<path style="fill:#bce3fc; stroke:none;" d="M184 285L185 286L184 285z"/>
<path style="fill:#829cb0; stroke:none;" d="M292 285L293 286L292 285z"/>
<path style="fill:#bce3fc; stroke:none;" d="M291 286L292 287L291 286M103 287L104 288L103 287z"/>
<path style="fill:#589cd7; stroke:none;" d="M183.333 287.667L183.667 288.333L183.333 287.667z"/>
<path style="fill:#bce3fc; stroke:none;" d="M290 287L291 288L290 287M289 288L289 291L290 291L289 288M313 288L313 291L314 291L313 288M102 289L103 290L102 289M183 289L184 290L183 289z"/>
<path style="fill:#829cb0; stroke:none;" d="M102 290L103 291L102 290M290 291L291 292L290 291M312 291L313 292L312 291z"/>
<path style="fill:#bce3fc; stroke:none;" d="M101 292L102 293L101 292z"/>
<path style="fill:#589cd7; stroke:none;" d="M182 292L183 293L182 292M101 293L102 294L101 293z"/>
<path style="fill:#829cb0; stroke:none;" d="M182 293L183 294L182 293M290 293L291 294L290 293M312 293L313 294L312 293z"/>
<path style="fill:#bce3fc; stroke:none;" d="M182.333 294.667L182.667 295.333L182.333 294.667M290 294L290 299L291 299L290 294M312.333 294.667L312.667 295.333L312.333 294.667M100 295L101 296L100 295z"/>
<path style="fill:#589cd7; stroke:none;" d="M100 296L101 297L100 296z"/>
<path style="fill:#829cb0; stroke:none;" d="M311 298L312 299L311 298z"/>
<path style="fill:#bce3fc; stroke:none;" d="M99 299L100 300L99 299z"/>
<path style="fill:#589cd7; stroke:none;" d="M181 299L182 300L181 299z"/>
<path style="fill:#bce3fc; stroke:none;" d="M311.333 299.667L311.667 300.333L311.333 299.667z"/>
<path style="fill:#829cb0; stroke:none;" d="M99 300L100 301L99 300M181 300L182 301L181 300z"/>
<path style="fill:#589cd7; stroke:none;" d="M181 301L181 304L182 304L181 301z"/>
<path style="fill:#829cb0; stroke:none;" d="M310 301L310 304L311 304L310 301z"/>
<path style="fill:#bce3fc; stroke:none;" d="M98 303L99 304L98 303z"/>
<path style="fill:#589cd7; stroke:none;" d="M98 304L99 305L98 304z"/>
<path style="fill:#bce3fc; stroke:none;" d="M310.333 304.667L310.667 305.333L310.333 304.667M97.3333 307.667L97.6667 308.333L97.3333 307.667M309.333 308.667L309.667 309.333L309.333 308.667z"/>
<path style="fill:#829cb0; stroke:none;" d="M97 309L98 310L97 309z"/>
<path style="fill:#bce3fc; stroke:none;" d="M290 309L290 312L291 312L290 309M182.333 310.667L182.667 311.333L182.333 310.667z"/>
<path style="fill:#829cb0; stroke:none;" d="M182 312L183 313L182 312M290 312L291 313L290 312M308 312L309 313L308 312z"/>
<path style="fill:#bce3fc; stroke:none;" d="M96.3333 313.667L96.6667 314.333L96.3333 313.667z"/>
<path style="fill:#589cd7; stroke:none;" d="M182 313L183 314L182 313z"/>
<path style="fill:#bce3fc; stroke:none;" d="M308.333 313.667L308.667 314.333L308.333 313.667z"/>
<path style="fill:#829cb0; stroke:none;" d="M96 315L97 316L96 315z"/>
<path style="fill:#bce3fc; stroke:none;" d="M289.333 315.667L289.667 316.333L289.333 315.667z"/>
<path style="fill:#589cd7; stroke:none;" d="M96.3333 316.667L96.6667 317.333L96.3333 316.667z"/>
<path style="fill:#bce3fc; stroke:none;" d="M183 316L184 317L183 316M307.333 316.667L307.667 317.333L307.333 316.667z"/>
<path style="fill:#589cd7; stroke:none;" d="M183 317L184 318L183 317z"/>
<path style="fill:#829cb0; stroke:none;" d="M289.333 317.667L289.667 318.333L289.333 317.667z"/>
<path style="fill:#bce3fc; stroke:none;" d="M184 319L185 320L184 319M288 319L289 320L288 319z"/>
<path style="fill:#829cb0; stroke:none;" d="M184 320L185 321L184 320z"/>
<path style="fill:#bce3fc; stroke:none;" d="M306.333 320.667L306.667 321.333L306.333 320.667M185 322L186 323L185 322M287 322L288 323L287 322z"/>
<path style="fill:#589cd7; stroke:none;" d="M185 323L186 324L185 323z"/>
<path style="fill:#829cb0; stroke:none;" d="M287 323L288 324L287 323M305 323L306 324L305 323z"/>
<path style="fill:#bce3fc; stroke:none;" d="M286.333 324.667L286.667 325.333L286.333 324.667M305 324L306 325L305 324z"/>
<path style="fill:#829cb0; stroke:none;" d="M186 325L187 326L186 325M185 326L186 327L185 326z"/>
<path style="fill:#bce3fc; stroke:none;" d="M285.333 326.667L285.667 327.333L285.333 326.667z"/>
<path style="fill:#829cb0; stroke:none;" d="M304 326L305 327L304 326z"/>
<path style="fill:#589cd7; stroke:none;" d="M182 327L183 328L182 327z"/>
<path style="fill:#bce3fc; stroke:none;" d="M183 327L184 328L183 327M304 327L305 328L304 327z"/>
<path style="fill:#829cb0; stroke:none;" d="M179 328L180 329L179 328z"/>
<path style="fill:#bce3fc; stroke:none;" d="M180 328L181 329L180 328M284.333 328.667L284.667 329.333L284.333 328.667z"/>
<path style="fill:#829cb0; stroke:none;" d="M177 329L178 330L177 329z"/>
<path style="fill:#bce3fc; stroke:none;" d="M178 329L179 330L178 329M303.333 329.667L303.667 330.333L303.333 329.667z"/>
<path style="fill:#589cd7; stroke:none;" d="M96 330L96 334L97 334L96 330z"/>
<path style="fill:#829cb0; stroke:none;" d="M175 330L176 331L175 330z"/>
<path style="fill:#bce3fc; stroke:none;" d="M283 330L284 331L283 330z"/>
<path style="fill:#829cb0; stroke:none;" d="M173 331L174 332L173 331M283 331L284 332L283 331M302 331L303 332L302 331z"/>
<path style="fill:#bce3fc; stroke:none;" d="M171 332L172 333L171 332M282 332L283 333L282 332M302 332L303 333L302 332z"/>
<path style="fill:#589cd7; stroke:none;" d="M168 333L169 334L168 333z"/>
<path style="fill:#bce3fc; stroke:none;" d="M169 333L170 334L169 333M96 334L96 337L97 337L96 334z"/>
<path style="fill:#829cb0; stroke:none;" d="M166 334L167 335L166 334z"/>
<path style="fill:#bce3fc; stroke:none;" d="M167 334L168 335L167 334z"/>
<path style="fill:#829cb0; stroke:none;" d="M281 334L282 335L281 334z"/>
<path style="fill:#bce3fc; stroke:none;" d="M301 334L302 335L301 334M165 335L166 336L165 335M280 335L281 336L280 335M163 336L164 337L163 336M191.667 336.333L192.333 336.667L191.667 336.333M279 336L280 337L279 336M300 336L301 337L300 336z"/>
<path style="fill:#829cb0; stroke:none;" d="M161 337L162 338L161 337z"/>
<path style="fill:#bce3fc; stroke:none;" d="M188.667 337.333L189.333 337.667L188.667 337.333z"/>
<path style="fill:#829cb0; stroke:none;" d="M190 337L191 338L190 337M192.667 337.333L193.333 337.667L192.667 337.333M159 338L160 339L159 338z"/>
<path style="fill:#bce3fc; stroke:none;" d="M185.667 338.333L186.333 338.667L185.667 338.333z"/>
<path style="fill:#829cb0; stroke:none;" d="M194 338L195 339L194 338z"/>
<path style="fill:#bce3fc; stroke:none;" d="M299 338L300 339L299 338M158 339L159 340L158 339M183 339L184 340L183 339z"/>
<path style="fill:#829cb0; stroke:none;" d="M184 339L185 340L184 339z"/>
<path style="fill:#bce3fc; stroke:none;" d="M195 339L196 340L195 339z"/>
<path style="fill:#829cb0; stroke:none;" d="M97.3333 340.667L97.6667 341.333L97.3333 340.667z"/>
<path style="fill:#bce3fc; stroke:none;" d="M156 340L157 341L156 340M180.667 340.333L181.333 340.667L180.667 340.333M196 340L198 342L196 340M276 340L277 341L276 340M298 340L299 341L298 340z"/>
<path style="fill:#589cd7; stroke:none;" d="M154 341L155 342L154 341z"/>
<path style="fill:#bce3fc; stroke:none;" d="M178 341L179 342L178 341z"/>
<path style="fill:#829cb0; stroke:none;" d="M179 341L180 342L179 341M196 341L197 342L196 341M275 341L276 342L275 341M297 341L298 342L297 341z"/>
<path style="fill:#bce3fc; stroke:none;" d="M97 342L98 343L97 342M153 342L154 343L153 342M176 342L177 343L176 342M198 342L199 343L198 342M274 342L275 343L274 342z"/>
<path style="fill:#829cb0; stroke:none;" d="M296 342L297 343L296 342M151 343L152 344L151 343z"/>
<path style="fill:#bce3fc; stroke:none;" d="M174 343L175 344L174 343z"/>
<path style="fill:#829cb0; stroke:none;" d="M175 343L176 344L175 343M199 343L200 344L199 343M273 343L274 344L273 343z"/>
<path style="fill:#bce3fc; stroke:none;" d="M296 343L297 344L296 343M150 344L151 345L150 344z"/>
<path style="fill:#829cb0; stroke:none;" d="M172 344L173 345L172 344M200 344L201 345L200 344z"/>
<path style="fill:#589cd7; stroke:none;" d="M98 345L99 346L98 345z"/>
<path style="fill:#829cb0; stroke:none;" d="M148 345L149 346L148 345z"/>
<path style="fill:#bce3fc; stroke:none;" d="M170 345L171 346L170 345z"/>
<path style="fill:#829cb0; stroke:none;" d="M201 345L202 346L201 345z"/>
<path style="fill:#bce3fc; stroke:none;" d="M270 345L271 346L270 345z"/>
<path style="fill:#829cb0; stroke:none;" d="M271 345L272 346L271 345M98 346L99 347L98 346z"/>
<path style="fill:#bce3fc; stroke:none;" d="M147 346L148 347L147 346M168 346L169 347L168 346z"/>
<path style="fill:#829cb0; stroke:none;" d="M202 346L203 347L202 346z"/>
<path style="fill:#bce3fc; stroke:none;" d="M203 346L204 347L203 346M269 346L270 347L269 346M294 346L295 347L294 346M98 347L99 348L98 347z"/>
<path style="fill:#829cb0; stroke:none;" d="M145 347L146 348L145 347z"/>
<path style="fill:#bce3fc; stroke:none;" d="M166 347L167 348L166 347z"/>
<path style="fill:#829cb0; stroke:none;" d="M167 347L168 348L167 347M204 347L205 348L204 347z"/>
<path style="fill:#bce3fc; stroke:none;" d="M293 347L294 348L293 347z"/>
<path style="fill:#829cb0; stroke:none;" d="M144 348L145 349L144 348z"/>
<path style="fill:#bce3fc; stroke:none;" d="M164 348L165 349L164 348M206 348L207 349L206 348M266 348L267 349L266 348z"/>
<path style="fill:#829cb0; stroke:none;" d="M292 348L293 349L292 348z"/>
<path style="fill:#589cd7; stroke:none;" d="M99.3333 349.667L99.6667 350.333L99.3333 349.667z"/>
<path style="fill:#bce3fc; stroke:none;" d="M143 349L144 350L143 349M162 349L163 350L162 349M207 349L208 350L207 349M265 349L266 350L265 349z"/>
<path style="fill:#829cb0; stroke:none;" d="M291 349L292 350L291 349M141 350L142 351L141 350M161 350L162 351L161 350M208 350L209 351L208 350z"/>
<path style="fill:#bce3fc; stroke:none;" d="M209 350L210 351L209 350M263 350L264 351L263 350M99 351L100 352L99 351z"/>
<path style="fill:#829cb0; stroke:none;" d="M140 351L141 352L140 351z"/>
<path style="fill:#bce3fc; stroke:none;" d="M159 351L160 352L159 351z"/>
<path style="fill:#829cb0; stroke:none;" d="M160 351L161 352L160 351M210 351L211 352L210 351z"/>
<path style="fill:#bce3fc; stroke:none;" d="M211 351L212 352L211 351M261 351L262 352L261 351z"/>
<path style="fill:#829cb0; stroke:none;" d="M262 351L263 352L262 351z"/>
<path style="fill:#bce3fc; stroke:none;" d="M290 351L291 352L290 351M139 352L140 353L139 352M213 352L214 353L213 352M259 352L260 353L259 352z"/>
<path style="fill:#829cb0; stroke:none;" d="M288 352L289 353L288 352z"/>
<path style="fill:#bce3fc; stroke:none;" d="M289 352L290 353L289 352z"/>
<path style="fill:#829cb0; stroke:none;" d="M100 353L101 354L100 353z"/>
<path style="fill:#bce3fc; stroke:none;" d="M138 353L139 354L138 353M156 353L157 354L156 353z"/>
<path style="fill:#829cb0; stroke:none;" d="M214 353L215 354L214 353z"/>
<path style="fill:#bce3fc; stroke:none;" d="M215 353L216 354L215 353M256.667 353.333L257.333 353.667L256.667 353.333M288 353L289 354L288 353M100 354L101 355L100 354M137 354L138 355L137 354M218 354L219 355L218 354M254 354L255 355L254 354z"/>
<path style="fill:#829cb0; stroke:none;" d="M255 354L256 355L255 354M257 354L258 355L257 354M135 355L136 356L135 355z"/>
<path style="fill:#bce3fc; stroke:none;" d="M153 355L154 356L153 355z"/>
<path style="fill:#829cb0; stroke:none;" d="M219.667 355.333L220.333 355.667L219.667 355.333z"/>
<path style="fill:#bce3fc; stroke:none;" d="M221.667 355.333L222.333 355.667L221.667 355.333M251.667 355.333L252.333 355.667L251.667 355.333z"/>
<path style="fill:#829cb0; stroke:none;" d="M253 355L254 356L253 355M101 356L102 357L101 356M134 356L135 357L134 356M152 356L153 357L152 356z"/>
<path style="fill:#bce3fc; stroke:none;" d="M225 356L225 357L228 357L225 356M247.667 356.333L248.333 356.667L247.667 356.333M101 357L102 358L101 357M133 357L134 358L133 357M150 357L151 358L150 357z"/>
<path style="fill:#829cb0; stroke:none;" d="M151 357L152 358L151 357M230 357L231 358L230 357z"/>
<path style="fill:#bce3fc; stroke:none;" d="M231 357L231 358L242 358L231 357z"/>
<path style="fill:#829cb0; stroke:none;" d="M242.667 357.333L243.333 357.667L242.667 357.333M284 357L285 358L284 357z"/>
<path style="fill:#bce3fc; stroke:none;" d="M132 358L133 359L132 358M149 358L150 359L149 358M283 358L284 359L283 358z"/>
<path style="fill:#589cd7; stroke:none;" d="M102 359L103 360L102 359z"/>
<path style="fill:#bce3fc; stroke:none;" d="M131 359L132 360L131 359z"/>
<path style="fill:#829cb0; stroke:none;" d="M148 359L149 360L148 359z"/>
<path style="fill:#bce3fc; stroke:none;" d="M102 360L103 361L102 360M130 360L131 361L130 360M146 360L147 361L146 360M281 360L282 361L281 360M129 361L130 362L129 361M145 361L146 362L145 361M280 361L281 362L280 361z"/>
<path style="fill:#589cd7; stroke:none;" d="M103 362L104 363L103 362z"/>
<path style="fill:#bce3fc; stroke:none;" d="M128 362L129 363L128 362M144 362L145 363L144 362z"/>
<path style="fill:#829cb0; stroke:none;" d="M278 362L279 363L278 362z"/>
<path style="fill:#bce3fc; stroke:none;" d="M103 363L104 364L103 363M127 363L128 364L127 363z"/>
<path style="fill:#589cd7; stroke:none;" d="M104 364L105 365L104 364z"/>
<path style="fill:#bce3fc; stroke:none;" d="M126 364L127 365L126 364M276 364L277 365L276 364M104 365L105 366L104 365M125 365L126 366L125 365M140 365L141 366L140 365z"/>
<path style="fill:#829cb0; stroke:none;" d="M274 365L275 366L274 365z"/>
<path style="fill:#bce3fc; stroke:none;" d="M275 365L276 366L275 365M124 366L125 367L124 366M139 366L140 367L139 366z"/>
<path style="fill:#829cb0; stroke:none;" d="M273 366L274 367L273 366z"/>
<path style="fill:#bce3fc; stroke:none;" d="M105 367L106 368L105 367z"/>
<path style="fill:#829cb0; stroke:none;" d="M123 367L124 368L123 367z"/>
<path style="fill:#bce3fc; stroke:none;" d="M138 367L139 368L138 367M272 367L273 368L272 367z"/>
<path style="fill:#829cb0; stroke:none;" d="M122 368L123 369L122 368z"/>
<path style="fill:#bce3fc; stroke:none;" d="M137 368L138 369L137 368M271 368L272 369L271 368z"/>
<path style="fill:#589cd7; stroke:none;" d="M106 369L107 370L106 369z"/>
<path style="fill:#bce3fc; stroke:none;" d="M136 369L137 370L136 369z"/>
<path style="fill:#829cb0; stroke:none;" d="M268 369L269 370L268 369z"/>
<path style="fill:#bce3fc; stroke:none;" d="M269 369L270 370L269 369z"/>
<path style="fill:#094b84; stroke:none;" d="M145 407L145 409C187.346 432.482 241.409 434.509 273.985 393C279.612 385.831 285.451 377.847 288 369C272.767 375.406 260.661 384.896 244 388.576C226.03 392.545 208.099 390.975 190 393.285C173.927 395.337 159.799 400.839 145 407z"/>
<path style="fill:#bce3fc; stroke:none;" d="M135 370L136 371L135 370z"/>
<path style="fill:#829cb0; stroke:none;" d="M266 370L267 371L266 370z"/>
<path style="fill:#bce3fc; stroke:none;" d="M267 370L268 371L267 370M284 370L285 371L284 370z"/>
<path style="fill:#829cb0; stroke:none;" d="M107 371L108 372L107 371z"/>
<path style="fill:#bce3fc; stroke:none;" d="M120 371L121 372L120 371M134 371L135 372L134 371z"/>
<path style="fill:#829cb0; stroke:none;" d="M264 371L265 372L264 371z"/>
<path style="fill:#bce3fc; stroke:none;" d="M265 371L266 372L265 371z"/>
<path style="fill:#829cb0; stroke:none;" d="M283 371L284 372L283 371z"/>
<path style="fill:#589cd7; stroke:none;" d="M287 371L288 372L287 371z"/>
<path style="fill:#bce3fc; stroke:none;" d="M119 372L120 373L119 372M133 372L134 373L133 372M263 372L264 373L263 372M281 372L282 373L281 372M287 372L288 373L287 372z"/>
<path style="fill:#829cb0; stroke:none;" d="M108 373L109 374L108 373M118 373L119 374L118 373M133 373L134 374L133 373z"/>
<path style="fill:#bce3fc; stroke:none;" d="M261 373L262 374L261 373z"/>
<path style="fill:#829cb0; stroke:none;" d="M280 373L281 374L280 373M286 373L287 374L286 373M117 374L118 375L117 374M132 374L133 375L132 374M258 374L259 375L258 374z"/>
<path style="fill:#bce3fc; stroke:none;" d="M259 374L260 375L259 374z"/>
<path style="fill:#589cd7; stroke:none;" d="M278 374L279 375L278 374z"/>
<path style="fill:#bce3fc; stroke:none;" d="M286 374L287 375L286 374M109 375L110 376L109 375z"/>
<path style="fill:#829cb0; stroke:none;" d="M131 375L132 376L131 375z"/>
<path style="fill:#bce3fc; stroke:none;" d="M256 375L257 376L256 375M276 375L277 376L276 375z"/>
<path style="fill:#829cb0; stroke:none;" d="M285 375L286 376L285 375z"/>
<path style="fill:#bce3fc; stroke:none;" d="M116 376L117 377L116 376z"/>
<path style="fill:#829cb0; stroke:none;" d="M130 376L131 377L130 376M252.667 376.333L253.333 376.667L252.667 376.333z"/>
<path style="fill:#bce3fc; stroke:none;" d="M254 376L255 377L254 376M274 376L275 377L274 376z"/>
<path style="fill:#589cd7; stroke:none;" d="M275 376L276 377L275 376z"/>
<path style="fill:#bce3fc; stroke:none;" d="M110 377L111 378L110 377M115 377L116 378L115 377M129 377L130 378L129 377M250.667 377.333L251.333 377.667L250.667 377.333z"/>
<path style="fill:#829cb0; stroke:none;" d="M273 377L274 378L273 377M284 377L285 378L284 377z"/>
<path style="fill:#589cd7; stroke:none;" d="M111 378L112 379L111 378M114 378L115 379L114 378z"/>
<path style="fill:#bce3fc; stroke:none;" d="M128 378L129 379L128 378z"/>
<path style="fill:#829cb0; stroke:none;" d="M245 378L246 379L245 378z"/>
<path style="fill:#bce3fc; stroke:none;" d="M246.667 378.333L247.333 378.667L246.667 378.333z"/>
<path style="fill:#829cb0; stroke:none;" d="M271 378L272 379L271 378z"/>
<path style="fill:#bce3fc; stroke:none;" d="M127 379L128 380L127 379M242.667 379.333L243.333 379.667L242.667 379.333z"/>
<path style="fill:#829cb0; stroke:none;" d="M269 379L270 380L269 379z"/>
<path style="fill:#bce3fc; stroke:none;" d="M283 379L284 380L283 379M112.667 380.333L113.333 380.667L112.667 380.333z"/>
<path style="fill:#829cb0; stroke:none;" d="M233 380L233 381L236 381L233 380z"/>
<path style="fill:#bce3fc; stroke:none;" d="M236 380L236 381L239 381L236 380z"/>
<path style="fill:#829cb0; stroke:none;" d="M267 380L268 381L267 380M282 380L283 381L282 380z"/>
<path style="fill:#bce3fc; stroke:none;" d="M223 381L224 382L223 381z"/>
<path style="fill:#829cb0; stroke:none;" d="M224 381L225 382L224 381z"/>
<path style="fill:#bce3fc; stroke:none;" d="M225 381L225 382L231 382L225 381M264 381L265 382L264 381z"/>
<path style="fill:#589cd7; stroke:none;" d="M265 381L266 382L265 381z"/>
<path style="fill:#829cb0; stroke:none;" d="M125 382L126 383L125 382M192 382L193 383L192 382z"/>
<path style="fill:#bce3fc; stroke:none;" d="M193 382L194 383L193 382z"/>
<path style="fill:#829cb0; stroke:none;" d="M194 382L195 383L194 382z"/>
<path style="fill:#bce3fc; stroke:none;" d="M195 382L195 383L200 383L195 382M262 382L263 383L262 382z"/>
<path style="fill:#589cd7; stroke:none;" d="M263 382L264 383L263 382z"/>
<path style="fill:#bce3fc; stroke:none;" d="M281 382L282 383L281 382M124 383L125 384L124 383z"/>
<path style="fill:#829cb0; stroke:none;" d="M184 383L185 384L184 383z"/>
<path style="fill:#bce3fc; stroke:none;" d="M185 383L185 384L188 384L185 383z"/>
<path style="fill:#829cb0; stroke:none;" d="M260 383L261 384L260 383z"/>
<path style="fill:#bce3fc; stroke:none;" d="M123 384L124 385L123 384z"/>
<path style="fill:#829cb0; stroke:none;" d="M178.667 384.333L179.333 384.667L178.667 384.333z"/>
<path style="fill:#bce3fc; stroke:none;" d="M180.667 384.333L181.333 384.667L180.667 384.333M257 384L258 385L257 384z"/>
<path style="fill:#589cd7; stroke:none;" d="M258 384L259 385L258 384z"/>
<path style="fill:#829cb0; stroke:none;" d="M123 385L124 386L123 385z"/>
<path style="fill:#bce3fc; stroke:none;" d="M174 385L174 386L177 386L174 385M254 385L255 386L254 385z"/>
<path style="fill:#829cb0; stroke:none;" d="M255 385L256 386L255 385z"/>
<path style="fill:#bce3fc; stroke:none;" d="M279 385L280 386L279 385M122 386L123 387L122 386M170.667 386.333L171.333 386.667L170.667 386.333M251 386L252 387L251 386z"/>
<path style="fill:#589cd7; stroke:none;" d="M252 386L253 387L252 386z"/>
<path style="fill:#829cb0; stroke:none;" d="M278 386L279 387L278 386z"/>
<path style="fill:#bce3fc; stroke:none;" d="M121 387L122 388L121 387M166.667 387.333L167.333 387.667L166.667 387.333M247 387L248 388L247 387z"/>
<path style="fill:#829cb0; stroke:none;" d="M248 387L249 388L248 387M121 388L122 389L121 388z"/>
<path style="fill:#bce3fc; stroke:none;" d="M163 388L164 389L163 388M242.667 388.333L243.333 388.667L242.667 388.333z"/>
<path style="fill:#829cb0; stroke:none;" d="M244 388L245 389L244 388z"/>
<path style="fill:#bce3fc; stroke:none;" d="M277 388L278 389L277 388M120 389L121 390L120 389z"/>
<path style="fill:#829cb0; stroke:none;" d="M159 389L160 390L159 389z"/>
<path style="fill:#bce3fc; stroke:none;" d="M160 389L161 390L160 389M237.667 389.333L238.333 389.667L237.667 389.333z"/>
<path style="fill:#829cb0; stroke:none;" d="M239 389L240 390L239 389M276 389L277 390L276 389M120 390L121 391L120 390M156 390L157 391L156 390z"/>
<path style="fill:#bce3fc; stroke:none;" d="M157 390L158 391L157 390M230.667 390.333L231.333 390.667L230.667 390.333z"/>
<path style="fill:#829cb0; stroke:none;" d="M232.667 390.333L233.333 390.667L232.667 390.333z"/>
<path style="fill:#589cd7; stroke:none;" d="M234 390L235 391L234 390z"/>
<path style="fill:#829cb0; stroke:none;" d="M153 391L154 392L153 391z"/>
<path style="fill:#bce3fc; stroke:none;" d="M154 391L155 392L154 391M204 391L204 392L222 392L204 391z"/>
<path style="fill:#829cb0; stroke:none;" d="M222 391L222 392L225 392L222 391z"/>
<path style="fill:#589cd7; stroke:none;" d="M225 391L226 392L225 391z"/>
<path style="fill:#bce3fc; stroke:none;" d="M121 392L123 394L121 392z"/>
<path style="fill:#829cb0; stroke:none;" d="M122 392L123 393L122 392M150 392L151 393L150 392z"/>
<path style="fill:#bce3fc; stroke:none;" d="M151.667 392.333L152.333 392.667L151.667 392.333M191 392L191 393L194 393L191 392z"/>
<path style="fill:#829cb0; stroke:none;" d="M194 392L195 393L194 392z"/>
<path style="fill:#589cd7; stroke:none;" d="M195 392L195 393L198 393L195 392z"/>
<path style="fill:#bce3fc; stroke:none;" d="M274 392L275 393L274 392z"/>
<path style="fill:#829cb0; stroke:none;" d="M148 393L149 394L148 393z"/>
<path style="fill:#bce3fc; stroke:none;" d="M149 393L150 394L149 393M185.667 393.333L186.333 393.667L185.667 393.333z"/>
<path style="fill:#829cb0; stroke:none;" d="M187.667 393.333L188.333 393.667L187.667 393.333M273 393L274 394L273 393z"/>
<path style="fill:#bce3fc; stroke:none;" d="M123 394L124 395L123 394M147 394L148 395L147 394M179.667 394.333L180.333 394.667L179.667 394.333z"/>
<path style="fill:#589cd7; stroke:none;" d="M181.667 394.333L182.333 394.667L181.667 394.333z"/>
<path style="fill:#829cb0; stroke:none;" d="M272 394L273 395L272 394z"/>
<path style="fill:#bce3fc; stroke:none;" d="M124 395L125 396L124 395z"/>
<path style="fill:#829cb0; stroke:none;" d="M144 395L145 396L144 395z"/>
<path style="fill:#bce3fc; stroke:none;" d="M175 395L176 396L175 395z"/>
<path style="fill:#829cb0; stroke:none;" d="M176 395L177 396L176 395z"/>
<path style="fill:#589cd7; stroke:none;" d="M177 395L178 396L177 395z"/>
<path style="fill:#bce3fc; stroke:none;" d="M125 396L126 397L125 396z"/>
<path style="fill:#829cb0; stroke:none;" d="M141.667 396.333L142.333 396.667L141.667 396.333z"/>
<path style="fill:#bce3fc; stroke:none;" d="M171 396L172 397L171 396z"/>
<path style="fill:#589cd7; stroke:none;" d="M172.667 396.333L173.333 396.667L172.667 396.333z"/>
<path style="fill:#bce3fc; stroke:none;" d="M126 397L128 399L126 397z"/>
<path style="fill:#829cb0; stroke:none;" d="M127 397L128 398L127 397z"/>
<path style="fill:#bce3fc; stroke:none;" d="M140 397L141 398L140 397M168 397L169 398L168 397z"/>
<path style="fill:#829cb0; stroke:none;" d="M169 397L170 398L169 397z"/>
<path style="fill:#bce3fc; stroke:none;" d="M270 397L271 398L270 397M164 398L165 399L164 398z"/>
<path style="fill:#589cd7; stroke:none;" d="M165 398L166 399L165 398z"/>
<path style="fill:#bce3fc; stroke:none;" d="M269 398L270 399L269 398M128 399L129 400L128 399z"/>
<path style="fill:#829cb0; stroke:none;" d="M162 399L163 400L162 399z"/>
<path style="fill:#bce3fc; stroke:none;" d="M268 399L269 400L268 399M129 400L132 403L129 400z"/>
<path style="fill:#829cb0; stroke:none;" d="M130 400L131 401L130 400M134 400L135 401L134 400z"/>
<path style="fill:#bce3fc; stroke:none;" d="M135 400L136 401L135 400M159 400L160 401L159 400z"/>
<path style="fill:#589cd7; stroke:none;" d="M160 400L161 401L160 400z"/>
<path style="fill:#bce3fc; stroke:none;" d="M267 400L268 401L267 400z"/>
<path style="fill:#829cb0; stroke:none;" d="M131.667 401.333L132.333 401.667L131.667 401.333z"/>
<path style="fill:#bce3fc; stroke:none;" d="M133 401L134 402L133 401M156 401L157 402L156 401z"/>
<path style="fill:#829cb0; stroke:none;" d="M157 401L158 402L157 401z"/>
<path style="fill:#bce3fc; stroke:none;" d="M266 401L267 402L266 401M154 402L155 403L154 402M265 402L266 403L265 402z"/>
<path style="fill:#829cb0; stroke:none;" d="M152 403L153 404L152 403z"/>
<path style="fill:#bce3fc; stroke:none;" d="M264 403L265 404L264 403z"/>
<path style="fill:#829cb0; stroke:none;" d="M150 404L151 405L150 404z"/>
<path style="fill:#bce3fc; stroke:none;" d="M263 404L264 405L263 404z"/>
<path style="fill:#829cb0; stroke:none;" d="M148 405L149 406L148 405z"/>
<path style="fill:#bce3fc; stroke:none;" d="M262 405L263 406L262 405z"/>
<path style="fill:#829cb0; stroke:none;" d="M146 406L147 407L146 406z"/>
<path style="fill:#bce3fc; stroke:none;" d="M144.333 407.667L144.667 408.333L144.333 407.667z"/>
<path style="fill:#829cb0; stroke:none;" d="M259 407L260 408L259 407M258 408L259 409L258 408M146 409L147 410L146 409z"/>
<path style="fill:#bce3fc; stroke:none;" d="M257 409L258 410L257 409M147 410L148 411L147 410M256 410L257 411L256 410z"/>
<path style="fill:#829cb0; stroke:none;" d="M149 411L150 412L149 411z"/>
<path style="fill:#589cd7; stroke:none;" d="M254 411L255 412L254 411z"/>
<path style="fill:#bce3fc; stroke:none;" d="M150 412L151 413L150 412M253 412L254 413L253 412M152 413L153 414L152 413z"/>
<path style="fill:#829cb0; stroke:none;" d="M251 413L252 414L251 413z"/>
<path style="fill:#bce3fc; stroke:none;" d="M154 414L155 415L154 414M250 414L251 415L250 414M156 415L157 416L156 415M248 415L249 416L248 415M158 416L159 417L158 416z"/>
<path style="fill:#829cb0; stroke:none;" d="M246 416L247 417L246 416z"/>
<path style="fill:#bce3fc; stroke:none;" d="M160 417L161 418L160 417z"/>
<path style="fill:#829cb0; stroke:none;" d="M244 417L245 418L244 417z"/>
<path style="fill:#bce3fc; stroke:none;" d="M162 418L163 419L162 418z"/>
<path style="fill:#829cb0; stroke:none;" d="M163 418L164 419L163 418M242 418L243 419L242 418z"/>
<path style="fill:#bce3fc; stroke:none;" d="M164 419L165 420L164 419z"/>
<path style="fill:#829cb0; stroke:none;" d="M165 419L166 420L165 419z"/>
<path style="fill:#bce3fc; stroke:none;" d="M240 419L241 420L240 419M167 420L168 421L167 420z"/>
<path style="fill:#829cb0; stroke:none;" d="M168 420L169 421L168 420M237 420L238 421L237 420z"/>
<path style="fill:#bce3fc; stroke:none;" d="M238 420L239 421L238 420z"/>
<path style="fill:#829cb0; stroke:none;" d="M170 421L171 422L170 421z"/>
<path style="fill:#589cd7; stroke:none;" d="M234 421L235 422L234 421z"/>
<path style="fill:#bce3fc; stroke:none;" d="M235 421L236 422L235 421M173 422L174 423L173 422z"/>
<path style="fill:#829cb0; stroke:none;" d="M174 422L175 423L174 422M231 422L232 423L231 422z"/>
<path style="fill:#bce3fc; stroke:none;" d="M232 422L233 423L232 422M177 423L178 424L177 423z"/>
<path style="fill:#589cd7; stroke:none;" d="M178 423L179 424L178 423M227 423L228 424L227 423z"/>
<path style="fill:#829cb0; stroke:none;" d="M228 423L229 424L228 423z"/>
<path style="fill:#bce3fc; stroke:none;" d="M229 423L230 424L229 423M181 424L182 425L181 424z"/>
<path style="fill:#829cb0; stroke:none;" d="M182.667 424.333L183.333 424.667L182.667 424.333z"/>
<path style="fill:#589cd7; stroke:none;" d="M222.667 424.333L223.333 424.667L222.667 424.333z"/>
<path style="fill:#bce3fc; stroke:none;" d="M224.667 424.333L225.333 424.667L224.667 424.333M186.667 425.333L187.333 425.667L186.667 425.333z"/>
<path style="fill:#589cd7; stroke:none;" d="M188.667 425.333L189.333 425.667L188.667 425.333M215 425L216 426L215 425z"/>
<path style="fill:#829cb0; stroke:none;" d="M216 425L217 426L216 425z"/>
<path style="fill:#589cd7; stroke:none;" d="M217 425L218 426L217 425z"/>
<path style="fill:#829cb0; stroke:none;" d="M218 425L219 426L218 425z"/>
<path style="fill:#bce3fc; stroke:none;" d="M219 425L220 426L219 425M193 426L193 427L198 427L193 426z"/>
<path style="fill:#829cb0; stroke:none;" d="M198 426L199 427L198 426z"/>
<path style="fill:#bce3fc; stroke:none;" d="M199 426L200 427L199 426z"/>
<path style="fill:#829cb0; stroke:none;" d="M200 426L200 427L205 427L200 426z"/>
<path style="fill:#bce3fc; stroke:none;" d="M205 426L206 427L205 426z"/>
<path style="fill:#829cb0; stroke:none;" d="M206 426L207 427L206 426z"/>
<path style="fill:#bce3fc; stroke:none;" d="M207 426L207 427L212 427L207 426z"/>
</svg>
